<?xml version="1.0" encoding="utf-8"?>
<!-- Generator: Adobe Illustrator 15.0.2, SVG Export Plug-In  -->
<!DOCTYPE svg PUBLIC "-//W3C//DTD SVG 1.1//EN" "http://www.w3.org/Graphics/SVG/1.1/DTD/svg11.dtd" [
	<!ENTITY ns_flows "http://ns.adobe.com/Flows/1.0/">
]>
<svg version="1.1"
	 xmlns="http://www.w3.org/2000/svg" xmlns:xlink="http://www.w3.org/1999/xlink" xmlns:a="http://ns.adobe.com/AdobeSVGViewerExtensions/3.0/"
	 x="0px" y="0px" width="182px" height="329px" viewBox="0 0 182 329" overflow="visible" enable-background="new 0 0 182 329"
	 xml:space="preserve">
<defs>
</defs>
<rect x="63.138" y="301.625" fill="#F7EEDC" width="20" height="18"/>
<rect x="111.138" y="300.625" fill="#F7EEDC" width="20" height="18"/>
<path fill="#F7EEDC" d="M167.138,114.125c0,6.627-5.27,8.072-11.111,12c-20.673,13.9-103.813,11.766-121.715,0
	c-5.406-3.554-11.549-6.062-12.174-12v-71c0-6.627,6.754-10.5,13.236-10.5h121.277c6.481,0,10.486,3.873,10.486,10.5V114.125z"/>
<g>
	<ellipse fill="#F9DDCA" cx="91.721" cy="96.958" rx="5.417" ry="2.833"/>
</g>
<path fill="#28120D" d="M45.638,77.625c1.984,1.163,4.053,2.132,6.213,2.793c2.16,0.651,4.386,1.06,6.632,1.157
	c2.245,0.12,4.504-0.06,6.722-0.475c1.11-0.207,2.207-0.498,3.272-0.879c1.074-0.36,2.119-0.822,3.067-1.474
	c-1.681,1.617-3.941,2.483-6.167,3.103c-2.253,0.61-4.607,0.826-6.943,0.724c-2.334-0.126-4.66-0.582-6.834-1.432
	C49.423,80.307,47.386,79.127,45.638,77.625z"/>
<path fill="#28120D" d="M111.638,77.625c1.984,1.163,4.053,2.132,6.213,2.793c2.16,0.651,4.386,1.06,6.632,1.157
	c2.245,0.12,4.504-0.06,6.722-0.475c1.11-0.207,2.207-0.498,3.272-0.879c1.074-0.36,2.119-0.822,3.067-1.474
	c-1.681,1.617-3.941,2.483-6.167,3.103c-2.253,0.61-4.607,0.826-6.943,0.724c-2.334-0.126-4.66-0.582-6.834-1.432
	C115.423,80.307,113.386,79.127,111.638,77.625z"/>
<path fill="#DD8A7F" d="M81.138,114c1.757,0.661,3.499,1.328,5.269,1.811c1.771,0.47,3.577,0.729,5.395,0.682
	c3.646-0.054,7.233-1.101,10.837-2.117c-3.304,1.746-6.966,3.028-10.821,3.117c-1.919,0.031-3.85-0.293-5.642-0.939
	C84.375,115.922,82.72,115.004,81.138,114z"/>
<radialGradient id="SVGID_1_" cx="27.8955" cy="108.2622" r="10.1996" gradientTransform="matrix(1.7457 0.1835 -0.1489 0.9753 18.9375 -14.4591)" gradientUnits="userSpaceOnUse">
	<stop  offset="0" style="stop-color:#EDD1CA"/>
	<stop  offset="1" style="stop-color:#F7EDDC;stop-opacity:0"/>
</radialGradient>
<ellipse fill="url(#SVGID_1_)" cx="51.513" cy="96.25" rx="22.875" ry="9.125"/>
<radialGradient id="SVGID_2_" cx="73.3604" cy="108.2622" r="10.1996" gradientTransform="matrix(1.7284 -0.2738 0.2222 0.9657 -19.334 11.7855)" gradientUnits="userSpaceOnUse">
	<stop  offset="0" style="stop-color:#EDD1CA"/>
	<stop  offset="1" style="stop-color:#F7EDDC;stop-opacity:0"/>
</radialGradient>
<ellipse fill="url(#SVGID_2_)" cx="131.513" cy="96.25" rx="22.875" ry="9.125"/>
<path fill="#843720" d="M56.236,132.725c-13.265-2.183-18.07-6.031-22.182-8.683c-6.669-4.302-8.185-18.389-8.084-29
	c34.667-8.5,94.127-47.668,100.834-62.417c0.942,2.875,48.077,40.347,36.667,106c-1.747,10.053-3.831,15.899-6.14,15.074
	c0.742,3.875,21.021-2.906,22.806-11.575c2.678-13.002,1.046-80.765,1.011-91.985c-0.028-9.183-3.113-23.784-16.344-33.848
	C131.388-9.125,54.301-0.051,36.138,11.625c-21,13.5-19.114,33.915-19.114,57.587c0,33.051-0.007,74.214-3.886,84.079
	c11.334,2,16.334,2,26.334,0.167C55.227,150.57,55.57,147.058,56.236,132.725z"/>
<path fill="#562310" d="M126.805,33.625c-8.144,9.119-17.426,17.207-27.211,24.557c-9.79,7.36-20.132,13.984-30.871,19.888
	c-10.765,5.84-21.934,11.047-33.668,14.715c-5.863,1.808-11.889,3.248-18.049,3.674c-3.074,0.177-6.195,0.098-9.214-0.596
	c-1.503-0.353-2.981-0.86-4.33-1.618C2.12,93.484,0.916,92.474,0,91.249c2.009,2.345,4.957,3.566,7.899,4.095
	c2.974,0.531,6.024,0.459,9.024,0.138c6.018-0.647,11.9-2.269,17.65-4.182c5.744-1.958,11.382-4.239,16.901-6.783
	c5.528-2.525,10.96-5.268,16.288-8.2c10.68-5.826,20.993-12.33,30.911-19.389c4.95-3.542,9.804-7.226,14.506-11.099
	C117.913,41.987,122.439,37.898,126.805,33.625z"/>
<path fill="#BDCCD4" d="M44.304,155.958c-7.332,13.833-13.832,34.063-13.832,65.167s4.431,25.842,13.666,28.289L44.304,155.958z"/>
<path fill="#BDCCD4" d="M148.472,154.958c7.332,13.833,13.832,34.063,13.832,65.167s-4.431,25.842-13.666,28.289L148.472,154.958z"
	/>
<path fill="#350202" d="M73.138,313.88v-0.005c0,0-0.341,0.002-0.501,0.002c-0.159,0-0.499-0.002-0.499-0.002v0.005
	c-19,0.096-19.804,3.121-19.92,10.745l0.141,2.302c0,0.996,5.098,1.698,11.361,1.698h8.506h0.944h8.388
	c6.262,0,11.369-0.702,11.369-1.698l0.132-2.302C92.941,317.002,92.138,313.977,73.138,313.88z"/>
<path fill="#350202" d="M121.138,313.88v-0.005c0,0-0.341,0.002-0.501,0.002c-0.159,0-0.499-0.002-0.499-0.002v0.005
	c-19,0.096-19.804,3.121-19.92,10.745l0.141,2.302c0,0.996,5.098,1.698,11.361,1.698h8.506h0.944h8.388
	c6.262,0,11.369-0.702,11.369-1.698l0.132-2.302C140.941,317.002,140.138,313.977,121.138,313.88z"/>
<path fill="#6EBACC" d="M138.026,146.625H56.252c-6.69,0-12.114,5.373-12.114,12v98c0,5.223,3,9.653,8,11.303v29.28
	c0,7.409,5.5,13.417,12.191,13.417h17.162c6.69,0,11.646-6.008,11.646-13.417v-28.583h7v28.583c0,7.409,5.959,13.417,12.65,13.417
	h17.162c6.69,0,12.188-6.008,12.188-13.417v-29.28c5-1.649,7-6.08,7-11.303v-98C149.138,151.998,144.717,146.625,138.026,146.625z"
	/>
<path fill="#F7EEDC" d="M79.513,135.188c0.945,1.622,1.292,10.146,0.375,11.438c-4.876,6.867,7.332,15.25,16.375,15.25
	s16.917-7.292,16.375-15.25c-0.375-4.292-0.5-5.75,0.375-11.292C111.196,135.285,81.694,135.243,79.513,135.188z"/>
<path fill="#E26E2D" d="M79.856,146.625c-3.994,1.824-6.885,6.946-6.885,11.336c0,6.165,5.417,11.163,12.099,11.163
	c5.222,0,9.658-3.058,11.354-7.334C87.143,161.643,79.513,154.688,79.856,146.625z"/>
<path fill="#E26E2D" d="M112.69,146.688c3.908,1.824,6.733,6.883,6.733,11.272c0,6.165-5.302,11.163-11.841,11.163
	c-5.111,0-9.452-3.058-11.111-7.334C105.555,161.643,112.575,155.062,112.69,146.688z"/>
</svg>
